<mxfile host="65bd71144e" modified="2020-11-21T03:32:53.641Z" agent="5.0 (Windows NT 10.0; Win64; x64) AppleWebKit/537.36 (KHTML, like Gecko) Code/1.51.1 Chrome/83.0.4103.122 Electron/9.3.3 Safari/537.36" version="13.6.5" etag="kzqdKx-uzd3mH1USig3t">
    <diagram id="LHqPYbL6alkvb37cotaU" name="ページ1">
        <mxGraphModel dx="1444" dy="790" grid="1" gridSize="10" guides="1" tooltips="1" connect="1" arrows="1" fold="1" page="1" pageScale="1" pageWidth="827" pageHeight="1169" math="0" shadow="0">
            <root>
                <mxCell id="0"/>
                <mxCell id="1" parent="0"/>
                <mxCell id="25" style="edgeStyle=orthogonalEdgeStyle;rounded=0;orthogonalLoop=1;jettySize=auto;html=1;exitX=0.5;exitY=0.5;exitDx=0;exitDy=0;exitPerimeter=0;entryX=0;entryY=0.5;entryDx=0;entryDy=0;" edge="1" parent="1" source="2" target="4">
                    <mxGeometry relative="1" as="geometry"/>
                </mxCell>
                <mxCell id="27" style="edgeStyle=orthogonalEdgeStyle;rounded=0;orthogonalLoop=1;jettySize=auto;html=1;exitX=0.5;exitY=0.5;exitDx=0;exitDy=0;exitPerimeter=0;entryX=0;entryY=0.5;entryDx=0;entryDy=0;" edge="1" parent="1" source="2" target="16">
                    <mxGeometry relative="1" as="geometry"/>
                </mxCell>
                <mxCell id="28" style="edgeStyle=orthogonalEdgeStyle;rounded=0;orthogonalLoop=1;jettySize=auto;html=1;exitX=0.5;exitY=0.5;exitDx=0;exitDy=0;exitPerimeter=0;entryX=0;entryY=0.5;entryDx=0;entryDy=0;" edge="1" parent="1" source="2" target="14">
                    <mxGeometry relative="1" as="geometry"/>
                </mxCell>
                <mxCell id="29" style="edgeStyle=orthogonalEdgeStyle;rounded=0;orthogonalLoop=1;jettySize=auto;html=1;exitX=0.5;exitY=0.5;exitDx=0;exitDy=0;exitPerimeter=0;entryX=0;entryY=0.5;entryDx=0;entryDy=0;" edge="1" parent="1" source="2" target="15">
                    <mxGeometry relative="1" as="geometry"/>
                </mxCell>
                <mxCell id="31" style="edgeStyle=orthogonalEdgeStyle;rounded=0;orthogonalLoop=1;jettySize=auto;html=1;exitX=0.5;exitY=0.5;exitDx=0;exitDy=0;exitPerimeter=0;" edge="1" parent="1" source="2" target="17">
                    <mxGeometry relative="1" as="geometry"/>
                </mxCell>
                <mxCell id="2" value="Actor" style="shape=umlActor;verticalLabelPosition=bottom;verticalAlign=top;html=1;" vertex="1" parent="1">
                    <mxGeometry x="30" y="230" width="70" height="110" as="geometry"/>
                </mxCell>
                <mxCell id="3" value="理論株価算出システム" style="swimlane;" vertex="1" parent="1">
                    <mxGeometry x="189" y="60" width="450" height="670" as="geometry"/>
                </mxCell>
                <mxCell id="4" value="財務３表を作成する" style="ellipse;whiteSpace=wrap;html=1;" vertex="1" parent="3">
                    <mxGeometry x="161" y="70" width="180" height="70" as="geometry"/>
                </mxCell>
                <mxCell id="14" value="株価を算出する" style="ellipse;whiteSpace=wrap;html=1;" vertex="1" parent="3">
                    <mxGeometry x="161" y="430" width="180" height="70" as="geometry"/>
                </mxCell>
                <mxCell id="15" value="買うべきか・売るべきか&lt;br&gt;判断する" style="ellipse;whiteSpace=wrap;html=1;" vertex="1" parent="3">
                    <mxGeometry x="161" y="540" width="180" height="70" as="geometry"/>
                </mxCell>
                <mxCell id="16" value="マルティプル分析を行う" style="ellipse;whiteSpace=wrap;html=1;" vertex="1" parent="3">
                    <mxGeometry x="161" y="320" width="180" height="70" as="geometry"/>
                </mxCell>
                <mxCell id="17" value="短期～長期の株価パフォーマンスを作成する" style="ellipse;whiteSpace=wrap;html=1;" vertex="1" parent="3">
                    <mxGeometry x="129" y="190" width="244" height="70" as="geometry"/>
                </mxCell>
                <mxCell id="24" style="edgeStyle=orthogonalEdgeStyle;rounded=0;orthogonalLoop=1;jettySize=auto;html=1;exitX=0.5;exitY=1;exitDx=0;exitDy=0;" edge="1" parent="3" source="4" target="4">
                    <mxGeometry relative="1" as="geometry"/>
                </mxCell>
                <mxCell id="26" style="edgeStyle=orthogonalEdgeStyle;rounded=0;orthogonalLoop=1;jettySize=auto;html=1;exitX=0.5;exitY=0.5;exitDx=0;exitDy=0;exitPerimeter=0;" edge="1" parent="1" source="20" target="17">
                    <mxGeometry relative="1" as="geometry"/>
                </mxCell>
                <mxCell id="20" value="Yahoo!ファイナンス" style="shape=umlActor;verticalLabelPosition=bottom;verticalAlign=top;html=1;" vertex="1" parent="1">
                    <mxGeometry x="757" y="230" width="70" height="110" as="geometry"/>
                </mxCell>
            </root>
        </mxGraphModel>
    </diagram>
</mxfile>